<svg xmlns="http://www.w3.org/2000/svg" version="1.1" xmlns:xlink="http://www.w3.org/1999/xlink" xmlns:svgjs="http://svgjs.com/svgjs" width="1440" height="560" preserveAspectRatio="none" viewBox="0 0 1440 560"><g mask="url(&quot;#SvgjsMask1050&quot;)" fill="none"><rect width="1440" height="560" x="0" y="0" fill="rgba(243, 245, 251, 1)"></rect><path d="M1288 197L1287 -42" stroke-width="8" stroke="url(#SvgjsLinearGradient1051)" stroke-linecap="round" class="Down"></path><path d="M155 460L154 646" stroke-width="10" stroke="url(#SvgjsLinearGradient1051)" stroke-linecap="round" class="Down"></path><path d="M698 547L697 824" stroke-width="8" stroke="url(#SvgjsLinearGradient1052)" stroke-linecap="round" class="Up"></path><path d="M761 190L760 545" stroke-width="10" stroke="url(#SvgjsLinearGradient1052)" stroke-linecap="round" class="Up"></path><path d="M1274 314L1273 645" stroke-width="6" stroke="url(#SvgjsLinearGradient1052)" stroke-linecap="round" class="Up"></path><path d="M78 160L77 518" stroke-width="6" stroke="url(#SvgjsLinearGradient1052)" stroke-linecap="round" class="Up"></path><path d="M1038 61L1037 -309" stroke-width="10" stroke="url(#SvgjsLinearGradient1052)" stroke-linecap="round" class="Up"></path><path d="M632 266L631 -118" stroke-width="6" stroke="url(#SvgjsLinearGradient1051)" stroke-linecap="round" class="Down"></path><path d="M368 78L367 -120" stroke-width="10" stroke="url(#SvgjsLinearGradient1051)" stroke-linecap="round" class="Down"></path><path d="M386 81L385 489" stroke-width="8" stroke="url(#SvgjsLinearGradient1052)" stroke-linecap="round" class="Up"></path><path d="M884 422L883 645" stroke-width="10" stroke="url(#SvgjsLinearGradient1052)" stroke-linecap="round" class="Up"></path><path d="M261 411L260 72" stroke-width="8" stroke="url(#SvgjsLinearGradient1051)" stroke-linecap="round" class="Down"></path><path d="M836 357L835 11" stroke-width="10" stroke="url(#SvgjsLinearGradient1051)" stroke-linecap="round" class="Down"></path><path d="M1298 323L1297 559" stroke-width="6" stroke="url(#SvgjsLinearGradient1052)" stroke-linecap="round" class="Up"></path><path d="M1395 404L1394 -1" stroke-width="10" stroke="url(#SvgjsLinearGradient1052)" stroke-linecap="round" class="Up"></path><path d="M206 386L205 12" stroke-width="8" stroke="url(#SvgjsLinearGradient1051)" stroke-linecap="round" class="Down"></path><path d="M1019 302L1018 -28" stroke-width="8" stroke="url(#SvgjsLinearGradient1052)" stroke-linecap="round" class="Up"></path><path d="M740 115L739 -79" stroke-width="8" stroke="url(#SvgjsLinearGradient1052)" stroke-linecap="round" class="Up"></path><path d="M233 232L232 467" stroke-width="6" stroke="url(#SvgjsLinearGradient1051)" stroke-linecap="round" class="Down"></path><path d="M312 398L311 649" stroke-width="6" stroke="url(#SvgjsLinearGradient1052)" stroke-linecap="round" class="Up"></path><path d="M912 151L911 -88" stroke-width="6" stroke="url(#SvgjsLinearGradient1051)" stroke-linecap="round" class="Down"></path><path d="M246 331L245 585" stroke-width="6" stroke="url(#SvgjsLinearGradient1051)" stroke-linecap="round" class="Down"></path><path d="M309 415L308 614" stroke-width="8" stroke="url(#SvgjsLinearGradient1051)" stroke-linecap="round" class="Down"></path><path d="M165 520L164 344" stroke-width="6" stroke="url(#SvgjsLinearGradient1052)" stroke-linecap="round" class="Up"></path><path d="M886 481L885 153" stroke-width="10" stroke="url(#SvgjsLinearGradient1052)" stroke-linecap="round" class="Up"></path><path d="M994 44L993 -243" stroke-width="10" stroke="url(#SvgjsLinearGradient1052)" stroke-linecap="round" class="Up"></path><path d="M1192 11L1191 -229" stroke-width="10" stroke="url(#SvgjsLinearGradient1051)" stroke-linecap="round" class="Down"></path><path d="M135 49L134 -214" stroke-width="8" stroke="url(#SvgjsLinearGradient1051)" stroke-linecap="round" class="Down"></path><path d="M1153 445L1152 829" stroke-width="10" stroke="url(#SvgjsLinearGradient1052)" stroke-linecap="round" class="Up"></path><path d="M929 44L928 333" stroke-width="10" stroke="url(#SvgjsLinearGradient1051)" stroke-linecap="round" class="Down"></path><path d="M799 36L798 -371" stroke-width="10" stroke="url(#SvgjsLinearGradient1052)" stroke-linecap="round" class="Up"></path><path d="M278 471L277 659" stroke-width="8" stroke="url(#SvgjsLinearGradient1051)" stroke-linecap="round" class="Down"></path><path d="M372 188L371 -135" stroke-width="6" stroke="url(#SvgjsLinearGradient1052)" stroke-linecap="round" class="Up"></path><path d="M48 459L47 796" stroke-width="10" stroke="url(#SvgjsLinearGradient1052)" stroke-linecap="round" class="Up"></path><path d="M460 277L459 3" stroke-width="10" stroke="url(#SvgjsLinearGradient1052)" stroke-linecap="round" class="Up"></path><path d="M278 470L277 214" stroke-width="6" stroke="url(#SvgjsLinearGradient1051)" stroke-linecap="round" class="Down"></path></g><defs><mask id="SvgjsMask1050"><rect width="1440" height="560" fill="#ffffff"></rect></mask><linearGradient x1="0%" y1="0%" x2="0%" y2="100%" id="SvgjsLinearGradient1051"><stop stop-color="rgba(221, 227, 245, 0)" offset="0"></stop><stop stop-color="rgba(221, 227, 245, 0.35)" offset="1"></stop></linearGradient><linearGradient x1="0%" y1="100%" x2="0%" y2="0%" id="SvgjsLinearGradient1052"><stop stop-color="rgba(221, 227, 245, 0)" offset="0"></stop><stop stop-color="rgba(221, 227, 245, 0.35)" offset="1"></stop></linearGradient></defs></svg>